<?xml version="1.0" standalone="no"?>
<!DOCTYPE svg PUBLIC "-//W3C//DTD SVG 20010904//EN"
 "http://www.w3.org/TR/2001/REC-SVG-20010904/DTD/svg10.dtd">
<svg version="1.0" xmlns="http://www.w3.org/2000/svg"
 width="971.000000pt" height="971.000000pt" viewBox="0 0 971.000000 971.000000"
 preserveAspectRatio="xMidYMid meet">
<metadata>
Created by potrace 1.14, written by Peter Selinger 2001-2017
</metadata>
<g transform="translate(0.000000,971.000000) scale(0.100000,-0.100000)"
fill="#000000" stroke="none">
<path d="M3740 7699 c-559 -16 -2009 -80 -2255 -99 -64 -5 379 -6 1055 -2
1924 11 3001 5 3000 -17 0 -3 -19 -14 -41 -24 -22 -11 -61 -36 -87 -57 l-48
-37 -344 -7 c-1672 -32 -3129 -56 -3446 -56 -129 0 -234 -4 -234 -8 0 -5 860
-12 1911 -15 1715 -6 1914 -8 1936 -22 32 -21 27 -35 -57 -160 -37 -55 -93
-144 -124 -198 -105 -178 -393 -784 -384 -808 2 -4 71 111 153 254 300 524
367 626 496 756 88 90 225 185 324 225 56 23 91 30 172 34 170 8 273 -33 552
-222 156 -105 419 -294 486 -350 l30 -24 -65 13 c-192 40 -297 49 -535 50
-200 0 -253 -3 -320 -19 -165 -38 -275 -112 -328 -219 -35 -72 -46 -126 -47
-219 l0 -76 -134 -96 -135 -96 -83 0 c-134 0 -507 -33 -635 -56 l-33 -6 71
153 c153 333 302 623 417 814 101 167 119 202 107 211 -29 22 -228 24 -1551
14 -1347 -9 -2435 -23 -2189 -27 1497 -25 2522 -156 2846 -364 74 -47 155
-143 199 -234 59 -121 81 -223 87 -407 l6 -157 -24 -5 c-13 -3 -96 -17 -184
-31 -157 -24 -175 -25 -1095 -35 -1723 -20 -2531 -38 -3005 -70 -154 -10 1342
-3 2285 10 760 11 1369 11 1320 0 -19 -5 -269 -13 -555 -19 -286 -6 -569 -13
-630 -16 -60 -3 -549 -9 -1085 -15 -536 -5 -1102 -13 -1258 -16 l-282 -6 0
-62 c0 -91 24 -152 85 -212 63 -63 147 -104 285 -139 154 -39 240 -84 326
-169 135 -134 164 -222 223 -674 19 -140 39 -254 52 -287 68 -181 219 -186
496 -18 197 118 401 270 883 653 409 326 457 360 690 493 477 271 781 386
1247 472 471 87 952 104 1433 49 141 -16 207 -34 123 -34 -55 0 -227 -45 -328
-85 -271 -110 -339 -165 -1030 -839 -650 -634 -921 -882 -1163 -1061 -365
-270 -702 -426 -1118 -519 -247 -55 -633 -105 -827 -107 -54 0 -59 -2 -37 -11
36 -16 578 -16 705 0 600 77 958 224 1450 597 314 237 467 377 1199 1088 454
443 562 539 731 652 124 84 208 125 322 157 68 20 101 23 258 22 168 0 185 -2
260 -27 191 -63 361 -215 488 -434 40 -69 117 -240 117 -258 0 -4 -25 16 -55
43 -41 36 -68 73 -100 136 -102 198 -210 326 -317 376 -282 131 -587 -32 -773
-414 -193 -395 -297 -981 -380 -2151 -20 -281 -39 -418 -72 -508 -70 -195
-182 -285 -432 -348 -131 -33 -661 -123 -1411 -238 l-515 -79 117 -1 c188 -2
967 50 1358 89 352 36 657 97 792 158 l63 29 80 -39 c44 -21 110 -48 148 -60
37 -12 67 -26 67 -30 0 -4 -17 -8 -37 -8 -96 -2 -934 -47 -938 -52 -7 -6 423
-37 675 -49 360 -16 840 13 1025 61 174 46 356 136 514 255 121 91 294 271
383 397 l68 95 317 153 c481 232 931 444 1093 515 159 70 253 99 481 150 83
19 153 36 156 38 2 3 -1 62 -6 133 -25 321 -35 599 -35 979 0 480 15 643 86
883 25 86 35 91 13 6 -58 -222 -88 -538 -88 -929 0 -518 59 -950 158 -1146
l26 -50 -36 -15 c-78 -32 -354 -68 -635 -81 l-155 -7 100 -13 c58 -8 210 -13
360 -14 510 -1 565 31 655 386 70 276 95 585 85 1059 -8 410 -8 395 1 641 5
167 3 205 -15 306 -42 233 -118 410 -228 529 -138 149 -301 225 -585 274 l-37
7 46 75 c139 230 103 295 -180 324 -98 10 -555 36 -1062 61 l-240 12 -100 60
c-143 87 -436 235 -604 307 -302 128 -524 189 -764 209 -147 13 -1765 12
-2197 0z m4240 -775 c219 -17 367 -37 382 -52 13 -13 -57 -69 -181 -142 l-104
-61 -203 136 c-112 75 -204 138 -204 138 0 3 103 -3 310 -19z m884 -20 c-4
-17 -49 -72 -107 -131 -93 -96 -103 -103 -139 -103 l-39 0 78 61 c102 80 182
158 194 188 13 32 22 21 13 -15z m-2265 -110 c244 -28 343 -64 398 -147 40
-60 53 -102 60 -194 l6 -71 -43 -22 c-60 -31 -210 -48 -542 -61 -314 -13 -464
-5 -617 31 l-83 20 -55 -47 c-30 -27 -72 -63 -94 -81 l-38 -33 -82 8 -82 8
149 117 150 117 10 81 c25 183 139 268 390 289 121 11 295 5 473 -15z m1360
-174 c-8 -5 -73 -14 -145 -20 -203 -17 -373 -46 -566 -95 -18 -5 -28 -3 -28 3
0 23 248 81 430 101 184 21 335 27 309 11z m-217 -149 c-303 -267 -546 -637
-710 -1081 -77 -208 -75 -225 9 -80 215 374 465 707 705 941 164 160 307 238
499 274 75 15 128 17 315 12 430 -11 643 -70 809 -223 72 -67 152 -181 196
-279 32 -73 32 -77 -5 -27 -68 95 -188 124 -282 69 -112 -65 -191 -230 -248
-517 -48 -241 -69 -490 -90 -1048 -12 -307 -19 -352 -74 -468 -41 -86 -140
-195 -235 -258 -136 -90 -1386 -723 -1377 -697 3 9 25 75 50 146 25 72 46 138
46 147 0 28 52 60 325 201 379 195 501 272 627 398 45 44 78 88 98 130 31 67
39 119 18 119 -7 0 -80 -13 -163 -30 -257 -50 -495 -81 -495 -64 0 3 8 18 19
32 39 56 112 215 135 294 59 204 79 442 68 808 -10 350 -2 504 29 568 21 42
30 49 79 65 65 22 241 33 353 23 77 -8 77 -8 77 -37 l0 -29 -177 0 c-98 0
-195 -5 -215 -10 -93 -26 -101 -76 -99 -623 1 -426 -5 -542 -35 -675 -17 -72
-51 -168 -84 -231 -14 -29 -18 -47 -12 -53 7 -7 72 -2 194 16 311 45 323 49
361 134 55 123 85 287 141 787 44 388 51 434 87 623 37 195 37 216 2 239 -25
16 -53 18 -284 16 -297 -2 -397 -13 -450 -48 -98 -64 -107 -164 -90 -940 14
-677 13 -701 -64 -855 -86 -171 -300 -410 -368 -410 -11 0 -16 25 -21 113 -26
420 -163 786 -408 1091 -53 65 -57 75 -68 150 -49 335 -242 616 -540 785 -70
40 -217 105 -279 123 -7 2 31 14 85 26 75 16 158 24 339 32 258 11 404 28 525
61 131 35 170 71 173 158 l2 51 69 21 c136 41 377 88 504 98 6 1 -23 -30 -66
-68z m-1917 -280 c50 -10 113 -22 140 -27 l50 -7 -37 -8 c-26 -6 -74 -3 -154
11 -64 11 -121 20 -126 20 -6 0 -5 6 2 15 16 19 18 19 125 -4z m3646 -515 c82
-152 125 -544 116 -1056 -7 -384 -33 -612 -88 -781 -38 -114 -77 -145 -117
-94 l-20 25 28 58 c146 295 146 1531 0 1827 -18 36 -18 40 -3 57 27 30 55 18
84 -36z m-3091 -39 c61 -27 137 -101 193 -186 20 -30 35 -56 33 -58 -1 -2 -50
21 -107 51 -118 62 -249 109 -375 134 l-87 17 53 29 c28 15 64 32 78 37 47 15
153 3 212 -24z m-280 -343 c218 -54 413 -166 580 -334 209 -209 343 -464 412
-780 19 -91 22 -134 22 -325 0 -191 -3 -234 -22 -323 -34 -155 -68 -255 -132
-387 -181 -374 -494 -639 -869 -733 -94 -23 -124 -26 -271 -26 -179 1 -267 17
-426 79 l-70 28 20 52 21 52 70 -29 c122 -50 211 -70 348 -75 143 -6 239 6
356 43 414 136 725 515 833 1017 29 137 32 443 5 587 -115 614 -564 1058
-1099 1087 l-107 6 25 50 26 50 86 -7 c48 -4 134 -18 192 -32z m-270 -158 c0
-2 -16 -38 -36 -81 -20 -43 -47 -121 -61 -174 -23 -86 -26 -116 -27 -291 0
-107 3 -225 7 -262 9 -84 -8 -93 -20 -10 -13 91 -9 439 5 507 28 130 99 315
121 315 6 0 11 -2 11 -4z m215 -23 c38 -9 96 -27 128 -39 62 -25 187 -91 187
-100 0 -3 -30 -38 -66 -77 -123 -135 -242 -335 -309 -520 -17 -49 -33 -88 -36
-89 -2 0 -25 3 -51 7 -25 4 -66 3 -91 -3 l-44 -9 -7 60 c-10 94 -7 321 5 400
21 141 66 280 116 360 27 42 26 42 168 10z m703 -580 c3 -10 -15 -13 -65 -13
-170 -1 -329 -76 -534 -252 -83 -72 -108 -68 -29 5 146 134 319 236 447 262
82 16 175 15 181 -2z m71 -157 c40 -111 58 -185 76 -303 19 -124 20 -197 3
-190 -90 39 -183 70 -268 87 -89 19 -126 21 -240 17 -74 -3 -145 -9 -156 -12
-19 -6 -24 -1 -34 32 -7 21 -28 67 -47 103 l-35 65 48 43 c117 103 278 195
394 226 30 8 94 15 142 15 l86 1 31 -84z m-1232 -225 c-20 -22 -58 -98 -73
-146 -18 -56 -17 -20 1 135 8 69 15 130 15 135 0 6 16 -16 35 -49 32 -51 34
-60 22 -75z m841 -448 c97 -64 183 -141 240 -215 43 -57 122 -195 122 -215 0
-30 -18 -8 -58 71 -81 158 -222 293 -422 402 -49 27 -90 55 -90 62 0 17 101
-35 208 -105z m-910 -8 c6 -22 27 -66 46 -97 l34 -57 -66 -55 c-36 -31 -67
-54 -68 -53 -6 5 16 298 22 309 9 14 19 -1 32 -47z m784 -2 c205 -123 359
-288 427 -459 l20 -52 -40 -67 c-21 -37 -61 -95 -89 -130 -53 -67 -205 -215
-221 -215 -5 0 -9 14 -9 31 0 57 -39 225 -80 344 -43 122 -99 244 -156 333
-19 29 -34 57 -34 62 0 5 11 26 25 46 14 20 35 63 46 95 12 33 24 59 26 59 3
0 41 -21 85 -47z m-657 -193 c5 -8 -152 -150 -176 -158 -25 -9 -4 26 30 52 22
16 59 48 82 72 45 46 54 51 64 34z m372 -87 c4 -21 8 -141 7 -268 0 -214 -2
-236 -26 -325 -31 -115 -86 -240 -104 -240 -10 0 -6 16 15 58 41 82 78 206 92
308 12 90 7 435 -7 482 -4 13 -2 22 4 22 6 0 15 -17 19 -37z m-183 2 c13 -3
44 -1 69 4 l45 8 7 -33 c13 -70 6 -364 -11 -462 -18 -107 -63 -244 -101 -309
-24 -41 -27 -43 -74 -43 -74 0 -193 27 -288 65 -46 19 -85 36 -87 37 -1 2 3
33 10 70 10 54 20 74 55 114 60 69 141 193 194 299 37 76 55 120 102 253 3 8
14 10 30 7 14 -3 36 -7 49 -10z"/>
<path d="M3810 5504 c-276 -21 -528 -59 -690 -104 -139 -39 -291 -130 -455
-274 -67 -58 -574 -510 -639 -569 -58 -53 -1 -14 119 82 313 250 617 465 785
554 131 70 245 100 500 132 165 21 499 32 484 16 -15 -16 -103 -29 -288 -41
-388 -26 -544 -67 -756 -198 -72 -44 -180 -136 -180 -153 0 -4 38 21 85 57 96
72 238 144 335 170 79 22 227 24 293 5 30 -9 58 -26 77 -48 26 -29 30 -42 30
-91 0 -145 -122 -261 -337 -321 -65 -18 -147 -30 -316 -47 l-59 -6 33 -17 c19
-10 44 -37 57 -62 32 -59 27 -147 -12 -214 -47 -80 -189 -168 -335 -207 -93
-25 -275 -30 -336 -9 -59 20 -102 56 -110 92 -7 31 -7 31 -27 12 -11 -11 -22
-38 -24 -59 -7 -51 21 -96 77 -124 35 -18 39 -24 28 -34 -33 -31 -240 -88
-529 -146 -241 -49 -242 -54 -10 -34 761 66 1239 243 1727 643 208 169 865
797 893 852 26 51 25 82 -4 116 l-24 28 -174 1 c-95 1 -193 0 -218 -2z"/>
<path d="M4197 4055 c-64 -16 -121 -54 -278 -182 -277 -228 -484 -365 -722
-478 -323 -153 -640 -246 -932 -274 -146 -14 -521 -31 -720 -32 -92 0 -151 -4
-140 -8 24 -10 296 -45 515 -66 239 -23 584 -30 758 -15 172 15 210 10 256
-30 46 -41 60 -100 45 -183 -22 -123 -75 -222 -177 -329 -52 -55 -54 -58 -29
-58 47 0 281 57 362 89 216 83 490 295 567 437 58 107 103 316 114 530 l7 121
50 31 c28 17 54 29 59 26 14 -9 9 -224 -8 -356 -41 -318 -190 -565 -432 -712
-88 -53 -267 -128 -438 -181 -247 -78 -243 -76 -149 -69 403 28 889 181 1112
348 69 52 140 140 185 230 62 123 99 334 118 681 16 271 11 436 -13 463 -24
26 -54 31 -110 17z"/>
</g>
</svg>
